<mxfile host="65bd71144e">
    <diagram id="lbEvUlvFup73DxTFOSPL" name="Page-1">
        <mxGraphModel dx="831" dy="1826" grid="1" gridSize="10" guides="1" tooltips="1" connect="1" arrows="1" fold="1" page="1" pageScale="1" pageWidth="850" pageHeight="1100" math="0" shadow="0">
            <root>
                <mxCell id="0"/>
                <mxCell id="1" parent="0"/>
                <mxCell id="2" value="App.js&amp;nbsp;&lt;br&gt;Applicatoin State&lt;br&gt;FetchUser()&lt;br&gt;FetchFollowers()&lt;br&gt;ComponentDidMount()&lt;br&gt;handleSubmit()&lt;br&gt;&lt;br&gt;render()&lt;br&gt;&lt;ul&gt;&lt;li&gt;Userform&lt;/li&gt;&lt;li&gt;USer Card&lt;/li&gt;&lt;li&gt;Followers&lt;/li&gt;&lt;/ul&gt;" style="whiteSpace=wrap;html=1;aspect=fixed;" vertex="1" parent="1">
                    <mxGeometry x="110" y="40" width="200" height="200" as="geometry"/>
                </mxCell>
                <mxCell id="4" value="" style="shape=flexArrow;endArrow=classic;startArrow=classic;html=1;entryX=0;entryY=0.5;entryDx=0;entryDy=0;" edge="1" parent="1">
                    <mxGeometry width="100" height="100" relative="1" as="geometry">
                        <mxPoint x="320" y="160" as="sourcePoint"/>
                        <mxPoint x="370" y="120" as="targetPoint"/>
                    </mxGeometry>
                </mxCell>
                <mxCell id="7" value="UserForm" style="swimlane;" vertex="1" parent="1">
                    <mxGeometry x="390" y="10" width="150" height="160" as="geometry"/>
                </mxCell>
                <mxCell id="14" value="Collects user input" style="text;html=1;align=center;verticalAlign=middle;resizable=0;points=[];autosize=1;strokeColor=none;" vertex="1" parent="7">
                    <mxGeometry x="20" y="80" width="110" height="20" as="geometry"/>
                </mxCell>
                <mxCell id="18" value="Collects user input" style="text;html=1;align=center;verticalAlign=middle;resizable=0;points=[];autosize=1;strokeColor=none;" vertex="1" parent="7">
                    <mxGeometry x="20" y="-20" width="110" height="20" as="geometry"/>
                </mxCell>
                <mxCell id="21" value="Change Handler" style="text;html=1;align=center;verticalAlign=middle;resizable=0;points=[];autosize=1;strokeColor=none;" vertex="1" parent="7">
                    <mxGeometry x="20" y="60" width="100" height="20" as="geometry"/>
                </mxCell>
                <mxCell id="20" value="Componnent State" style="text;html=1;align=center;verticalAlign=middle;resizable=0;points=[];autosize=1;strokeColor=none;" vertex="1" parent="7">
                    <mxGeometry x="10" y="40" width="120" height="20" as="geometry"/>
                </mxCell>
                <mxCell id="10" value="UserCard" style="swimlane;" vertex="1" parent="1">
                    <mxGeometry x="620" y="40" width="140" height="130" as="geometry"/>
                </mxCell>
                <mxCell id="17" value="HTML markup&amp;nbsp;&lt;br&gt;Name&lt;br&gt;GitHub Handle etc." style="text;html=1;align=center;verticalAlign=middle;resizable=0;points=[];autosize=1;strokeColor=none;" vertex="1" parent="10">
                    <mxGeometry x="10" y="40" width="120" height="50" as="geometry"/>
                </mxCell>
                <mxCell id="22" value="Pass props/state &lt;br&gt;to UserCard" style="text;html=1;align=center;verticalAlign=middle;resizable=0;points=[];autosize=1;strokeColor=none;" vertex="1" parent="1">
                    <mxGeometry x="410" y="115" width="100" height="30" as="geometry"/>
                </mxCell>
                <mxCell id="23" value="" style="shape=flexArrow;endArrow=classic;startArrow=classic;html=1;" edge="1" parent="1">
                    <mxGeometry width="100" height="100" relative="1" as="geometry">
                        <mxPoint x="540" y="110" as="sourcePoint"/>
                        <mxPoint x="610" y="110" as="targetPoint"/>
                    </mxGeometry>
                </mxCell>
                <mxCell id="24" value="Followers" style="swimlane;" vertex="1" parent="1">
                    <mxGeometry x="390" y="210" width="160" height="160" as="geometry"/>
                </mxCell>
                <mxCell id="25" value="Followers Card" style="swimlane;" vertex="1" parent="1">
                    <mxGeometry x="630" y="210" width="140" height="160" as="geometry"/>
                </mxCell>
                <mxCell id="28" value="HTML Markup" style="text;html=1;align=center;verticalAlign=middle;resizable=0;points=[];autosize=1;strokeColor=none;" vertex="1" parent="25">
                    <mxGeometry x="25" y="40" width="90" height="20" as="geometry"/>
                </mxCell>
                <mxCell id="26" value="" style="shape=flexArrow;endArrow=classic;startArrow=classic;html=1;exitX=1;exitY=1;exitDx=0;exitDy=0;" edge="1" parent="1" source="2">
                    <mxGeometry width="100" height="100" relative="1" as="geometry">
                        <mxPoint x="250" y="260" as="sourcePoint"/>
                        <mxPoint x="380" y="300" as="targetPoint"/>
                        <Array as="points"/>
                    </mxGeometry>
                </mxCell>
                <mxCell id="27" value="" style="shape=flexArrow;endArrow=classic;startArrow=classic;html=1;" edge="1" parent="1">
                    <mxGeometry width="100" height="100" relative="1" as="geometry">
                        <mxPoint x="550" y="290" as="sourcePoint"/>
                        <mxPoint x="630" y="290" as="targetPoint"/>
                        <Array as="points">
                            <mxPoint x="590" y="290"/>
                        </Array>
                    </mxGeometry>
                </mxCell>
                <mxCell id="29" value="Map over Followers" style="text;html=1;align=center;verticalAlign=middle;resizable=0;points=[];autosize=1;strokeColor=none;" vertex="1" parent="1">
                    <mxGeometry x="405" y="270" width="120" height="20" as="geometry"/>
                </mxCell>
            </root>
        </mxGraphModel>
    </diagram>
</mxfile>